<svg width="20" height="20" viewBox="0 0 20 20" fill="none" xmlns="http://www.w3.org/2000/svg">
<path d="M18.3334 5.20817V9.45815C18.3334 10.5165 17.9834 11.4082 17.3584 12.0248C16.7418 12.6498 15.8501 12.9998 14.7917 12.9998V14.5081C14.7917 15.0748 14.1584 15.4165 13.6917 15.0998L12.8834 14.5665C12.9584 14.3082 12.9917 14.0248 12.9917 13.7248V10.3332C12.9917 8.63319 11.8584 7.49984 10.1584 7.49984H4.50008C4.38341 7.49984 4.27508 7.50819 4.16675 7.51652V5.20817C4.16675 3.08317 5.58341 1.6665 7.70842 1.6665H14.7917C16.9167 1.6665 18.3334 3.08317 18.3334 5.20817Z" stroke="#292D32" stroke-width="1.5" stroke-miterlimit="10" stroke-linecap="round" stroke-linejoin="round"/>
<path d="M12.9917 10.3334V13.725C12.9917 14.025 12.9584 14.3083 12.8834 14.5667C12.5751 15.7917 11.5584 16.5583 10.1584 16.5583H7.89175L5.37508 18.2333C5.00008 18.4917 4.50008 18.2167 4.50008 17.7667V16.5583C3.65008 16.5583 2.94175 16.275 2.45008 15.7833C1.95008 15.2833 1.66675 14.575 1.66675 13.725V10.3334C1.66675 8.75002 2.65008 7.65835 4.16675 7.51668C4.27508 7.50835 4.38341 7.5 4.50008 7.5H10.1584C11.8584 7.5 12.9917 8.63335 12.9917 10.3334Z" stroke="#292D32" stroke-width="1.5" stroke-miterlimit="10" stroke-linecap="round" stroke-linejoin="round"/>
</svg>
