<svg width="134" height="130" viewBox="0 0 134 130" fill="none" xmlns="http://www.w3.org/2000/svg">
<g clip-path="url(#clip0_43_30525)">
<path d="M84.548 29.2365H48.6619C47.8441 29.2375 47.0601 29.5628 46.4819 30.1411C45.9036 30.7194 45.5783 31.5034 45.5773 32.3211V112.078L45.166 112.204L36.3626 114.9C35.9454 115.027 35.4947 114.984 35.1096 114.779C34.7244 114.574 34.4362 114.225 34.3083 113.808L8.12208 28.2721C7.99464 27.8549 8.03808 27.4041 8.24283 27.0189C8.44759 26.6337 8.79691 26.3455 9.21404 26.2177L22.7801 22.0638L62.1087 10.0257L75.6747 5.87176C75.8811 5.80822 76.0981 5.78601 76.3132 5.80642C76.5282 5.82682 76.7371 5.88943 76.9279 5.99066C77.1187 6.0919 77.2877 6.22976 77.4252 6.39638C77.5627 6.56299 77.6659 6.75508 77.7291 6.96165L84.4226 28.8253L84.548 29.2365Z" fill="#F2F2F2"/>
<path d="M92.3785 28.8251L84.3112 2.47442C84.177 2.03537 83.9576 1.62707 83.6655 1.27285C83.3734 0.918632 83.0144 0.625439 82.609 0.410022C82.2036 0.194606 81.7596 0.0611881 81.3026 0.0173974C80.8456 -0.0263933 80.3845 0.0203014 79.9455 0.154808L60.8724 5.99292L21.546 18.0331L2.47289 23.8733C1.58686 24.1454 0.844972 24.7579 0.410073 25.5764C-0.0248264 26.3949 -0.117205 27.3525 0.153218 28.239L27.7254 118.295C27.9451 119.01 28.3883 119.637 28.9901 120.082C29.5919 120.527 30.3206 120.768 31.0691 120.769C31.4156 120.769 31.7601 120.717 32.0911 120.614L45.1657 116.613L45.577 116.485V116.055L45.1657 116.181L31.9698 120.222C31.1877 120.46 30.343 120.379 29.621 119.995C28.8989 119.611 28.3585 118.957 28.1182 118.176L0.54813 28.1177C0.429083 27.7305 0.387592 27.3235 0.426032 26.9202C0.464471 26.5169 0.582082 26.1252 0.772138 25.7674C0.962195 25.4096 1.22096 25.0929 1.53362 24.8353C1.84627 24.5776 2.20667 24.3842 2.59418 24.2661L21.6673 18.4259L60.9938 6.38775L80.0669 0.547584C80.3608 0.457884 80.6664 0.412148 80.9737 0.411861C81.6332 0.413342 82.2749 0.625964 82.8048 1.01859C83.3348 1.41121 83.725 1.96319 83.9185 2.5937L91.9487 28.8251L92.0762 29.2364H92.504L92.3785 28.8251Z" fill="#7B8794"/>
<path d="M25.228 26.285C24.8316 26.2847 24.4458 26.1574 24.1271 25.9218C23.8084 25.6861 23.5736 25.3546 23.4571 24.9757L20.8084 16.3241C20.7372 16.0917 20.7125 15.8476 20.7357 15.6056C20.7589 15.3637 20.8296 15.1287 20.9436 14.914C21.0576 14.6994 21.2128 14.5093 21.4003 14.3546C21.5878 14.2 21.8039 14.0838 22.0363 14.0127L58.2164 2.93613C58.6857 2.79291 59.1927 2.84176 59.6261 3.07195C60.0594 3.30214 60.3838 3.69487 60.5279 4.16395L63.1766 12.8157C63.3197 13.285 63.2708 13.792 63.0407 14.2253C62.8105 14.6587 62.4178 14.983 61.9488 15.1272L25.7687 26.2037C25.5935 26.2575 25.4112 26.2849 25.228 26.285Z" fill="#0068FF"/>
<path d="M39.1033 9.24463C41.3747 9.24463 43.2161 7.40327 43.2161 5.13184C43.2161 2.8604 41.3747 1.01904 39.1033 1.01904C36.8318 1.01904 34.9905 2.8604 34.9905 5.13184C34.9905 7.40327 36.8318 9.24463 39.1033 9.24463Z" fill="#0068FF"/>
<path d="M39.1031 7.73604C40.5415 7.73604 41.7075 6.57004 41.7075 5.13169C41.7075 3.69335 40.5415 2.52734 39.1031 2.52734C37.6648 2.52734 36.4988 3.69335 36.4988 5.13169C36.4988 6.57004 37.6648 7.73604 39.1031 7.73604Z" fill="white"/>
<path d="M123.926 119.718H54.4196C53.9562 119.717 53.5119 119.533 53.1842 119.205C52.8565 118.878 52.6722 118.433 52.6716 117.97V34.6859C52.6721 34.2225 52.8565 33.7782 53.1842 33.4505C53.5119 33.1228 53.9561 32.9385 54.4196 32.938H123.926C124.389 32.9385 124.833 33.1229 125.161 33.4505C125.489 33.7782 125.673 34.2225 125.674 34.6859V117.97C125.673 118.433 125.489 118.878 125.161 119.205C124.833 119.533 124.389 119.717 123.926 119.718Z" fill="#E6E6E6"/>
<path d="M91.949 28.8252H48.6619C47.7351 28.8265 46.8467 29.1952 46.1914 29.8506C45.5361 30.5059 45.1673 31.3943 45.166 32.3211V116.181L45.5773 116.055V32.3211C45.5783 31.5033 45.9036 30.7193 46.4819 30.141C47.0601 29.5628 47.8441 29.2375 48.6619 29.2365H92.0766L91.949 28.8252ZM129.684 28.8252H48.6619C47.7351 28.8265 46.8467 29.1952 46.1914 29.8506C45.5361 30.5059 45.1673 31.3943 45.166 32.3211V126.504C45.1673 127.431 45.5361 128.319 46.1914 128.975C46.8467 129.63 47.7351 129.999 48.6619 130H129.684C130.611 129.999 131.499 129.63 132.154 128.975C132.81 128.319 133.178 127.431 133.18 126.504V32.3211C133.178 31.3943 132.81 30.5059 132.154 29.8506C131.499 29.1952 130.611 28.8265 129.684 28.8252ZM132.769 126.504C132.768 127.322 132.442 128.106 131.864 128.684C131.286 129.262 130.502 129.588 129.684 129.589H48.6619C47.8441 129.588 47.0601 129.262 46.4819 128.684C45.9036 128.106 45.5783 127.322 45.5773 126.504V32.3211C45.5783 31.5033 45.9036 30.7193 46.4819 30.141C47.0601 29.5628 47.8441 29.2375 48.6619 29.2365H129.684C130.502 29.2375 131.286 29.5628 131.864 30.141C132.442 30.7193 132.768 31.5033 132.769 32.3211V126.504Z" fill="#7B8794"/>
<path d="M108.092 37.8734H70.2538C69.7632 37.8729 69.2927 37.6777 68.9458 37.3308C68.5988 36.9838 68.4036 36.5134 68.4031 36.0227V26.9745C68.4036 26.4839 68.5988 26.0134 68.9458 25.6665C69.2927 25.3195 69.7632 25.1243 70.2538 25.1238H108.092C108.582 25.1243 109.053 25.3195 109.4 25.6665C109.747 26.0134 109.942 26.4839 109.942 26.9745V36.0227C109.942 36.5134 109.747 36.9838 109.4 37.3308C109.053 37.6777 108.582 37.8729 108.092 37.8734Z" fill="#0068FF"/>
<path d="M89.1728 25.7407C91.4443 25.7407 93.2856 23.8994 93.2856 21.6279C93.2856 19.3565 91.4443 17.5151 89.1728 17.5151C86.9014 17.5151 85.0601 19.3565 85.0601 21.6279C85.0601 23.8994 86.9014 25.7407 89.1728 25.7407Z" fill="#0068FF"/>
<path d="M89.1726 24.133C90.5561 24.133 91.6776 23.0114 91.6776 21.6279C91.6776 20.2444 90.5561 19.1228 89.1726 19.1228C87.789 19.1228 86.6675 20.2444 86.6675 21.6279C86.6675 23.0114 87.789 24.133 89.1726 24.133Z" fill="white"/>
</g>
<defs>
<clipPath id="clip0_43_30525">
<rect width="133.18" height="130" fill="white"/>
</clipPath>
</defs>
</svg>
