<svg width="195" height="130" viewBox="0 0 195 130" fill="none" xmlns="http://www.w3.org/2000/svg">
<path d="M57.1695 31.7879L27.9973 51.3022L56.7318 94.2577L85.904 74.7434L57.1695 31.7879Z" fill="#F5F5F5"/>
<path d="M70.8291 72.7115L70.4989 74.7603L55.9961 72.6699L56.3263 70.6211L70.8291 72.7115Z" fill="#E0E0E0"/>
<path d="M63.5257 65.4031L65.6057 65.7021L63.2995 79.9813L61.2169 79.6797L63.5257 65.4031Z" fill="#E0E0E0"/>
<path d="M50.18 47.255C50.2008 47.2836 47.2784 49.2778 43.6514 51.701C40.0244 54.1242 37.0682 56.069 37.0474 56.0378C37.0266 56.0066 39.949 54.015 43.576 51.5892C47.203 49.1634 50.1462 47.2238 50.18 47.255Z" fill="#E0E0E0"/>
<path d="M60.8971 44.5615C60.9179 44.5927 56.0559 47.8791 50.0395 51.9039C44.0231 55.9287 39.1195 59.1657 39.1039 59.1371C39.0883 59.1085 43.9399 55.8169 49.9641 51.7921C55.9883 47.7673 60.8763 44.5303 60.8971 44.5615Z" fill="#E0E0E0"/>
<path d="M63.0474 47.7749C63.0682 47.8061 58.2062 51.0951 52.1898 55.1199C46.1734 59.1447 41.2698 62.3817 41.2542 62.3505C41.2386 62.3193 46.0954 59.0329 52.1144 55.0055C58.1334 50.9781 63.0266 47.7437 63.0474 47.7749Z" fill="#E0E0E0"/>
<path d="M65.1975 50.9912C65.2183 51.0224 60.3563 54.3114 54.3399 58.3336C48.3235 62.3558 43.4199 65.598 43.4199 65.5668C43.4199 65.5356 48.2585 62.2466 54.2775 58.2218C60.2965 54.197 65.1767 50.96 65.1975 50.9912Z" fill="#E0E0E0"/>
<path d="M67.3399 54.2075C67.3607 54.2387 62.4987 57.5251 56.4823 61.5499C50.4659 65.5747 45.5623 68.8117 45.5493 68.7805C45.5363 68.7493 50.3957 65.4629 56.4199 61.4381C62.4441 57.4133 67.3399 54.1763 67.3399 54.2075Z" fill="#E0E0E0"/>
<path d="M154.718 60.5708L130.218 76.9597L154.35 113.034L178.85 96.6454L154.718 60.5708Z" fill="#F5F5F5"/>
<path d="M166.192 94.9469L165.914 96.6681L153.733 94.9131L154.014 93.1919L166.192 94.9469Z" fill="#E0E0E0"/>
<path d="M160.058 88.8081L161.806 89.0603L159.869 101.052L158.119 100.799L160.058 88.8081Z" fill="#E0E0E0"/>
<path d="M148.84 73.58C148.86 73.6112 146.409 75.2882 143.361 77.324C140.314 79.3598 137.829 80.9874 137.808 80.964C137.787 80.9406 140.241 79.2584 143.286 77.22C146.331 75.1816 148.819 73.5358 148.84 73.58Z" fill="#E0E0E0"/>
<path d="M157.849 71.305C157.87 71.3362 153.79 74.1026 148.749 77.48C143.707 80.8574 139.581 83.5769 139.56 83.5457C139.54 83.5145 143.619 80.7482 148.66 77.3682C153.702 73.9882 157.82 71.2738 157.849 71.305Z" fill="#E0E0E0"/>
<path d="M159.656 74.0039C159.676 74.0351 155.597 76.8015 150.556 80.1815C145.514 83.5615 141.388 86.2759 141.367 86.2447C141.346 86.2135 145.413 83.4601 150.467 80.0801C155.522 76.7001 159.64 73.9753 159.656 74.0039Z" fill="#E0E0E0"/>
<path d="M161.46 76.6999C161.481 76.7311 157.399 79.4975 152.36 82.8775C147.321 86.2575 143.192 88.9719 143.171 88.9407C143.151 88.9095 147.23 86.1457 152.271 82.7631C157.313 79.3805 161.442 76.6739 161.46 76.6999Z" fill="#E0E0E0"/>
<path d="M163.28 79.4065C163.301 79.4377 159.221 82.2015 154.18 85.5815C149.139 88.9615 145.012 91.6759 144.992 91.6473C144.971 91.6187 149.05 88.8497 154.092 85.4697C159.133 82.0897 163.246 79.3753 163.28 79.4065Z" fill="#E0E0E0"/>
<path d="M115.958 33.3682L89.2251 19.0703L68.1719 58.4332L94.9045 72.7311L115.958 33.3682Z" fill="#F5F5F5"/>
<path d="M90.3292 60.4162L88.634 60.996L84.3284 49.0958L86.0236 48.5134L90.3292 60.4162Z" fill="#E0E0E0"/>
<path d="M92.9291 51.8777L93.5479 53.5859L81.7283 57.6341L81.1095 55.9259L92.9291 51.8777Z" fill="#E0E0E0"/>
<path d="M101.327 34.3201C101.306 34.3591 98.5971 32.9499 95.2717 31.1741C91.9463 29.3983 89.2709 27.9241 89.2917 27.8851C89.3125 27.8461 92.0244 29.2553 95.3498 31.0311C98.6752 32.8069 101.348 34.2785 101.327 34.3201Z" fill="#E0E0E0"/>
<path d="M107.744 41.3998C107.723 41.4388 103.236 39.078 97.721 36.1296C92.2064 33.1812 87.7552 30.758 87.776 30.719C87.7968 30.68 92.2818 33.0382 97.7964 35.9892C103.311 38.9402 107.765 41.3608 107.744 41.3998Z" fill="#E0E0E0"/>
<path d="M106.168 44.3456C106.147 44.3846 101.66 42.0264 96.1453 39.078C90.6307 36.1296 86.1795 33.7038 86.2003 33.6648C86.2211 33.6258 90.7061 35.9866 96.2207 38.935C101.735 41.8834 106.189 44.3066 106.168 44.3456Z" fill="#E0E0E0"/>
<path d="M104.593 47.2914C104.572 47.3304 100.084 44.9722 94.5697 42.0238C89.0551 39.0754 84.6039 36.66 84.6247 36.6132C84.6455 36.5664 89.1305 38.9324 94.6451 41.8808C100.16 44.8292 104.614 47.2524 104.593 47.2914Z" fill="#E0E0E0"/>
<path d="M103.017 50.2373C102.996 50.2763 98.5088 47.9181 92.9942 44.9697C87.4796 42.0213 83.0258 39.5981 83.0492 39.5591C83.0726 39.5201 87.555 41.8783 93.0696 44.8267C98.5842 47.7751 103.038 50.1983 103.017 50.2373Z" fill="#E0E0E0"/>
<path opacity="0.2" d="M103.155 0H102.484V11.4348H103.155V0Z" fill="black"/>
<path d="M87.1598 25.2693H118.479C118.479 25.2693 115.588 11.4399 102.583 11.4399C91.0156 11.4399 87.1598 25.2693 87.1598 25.2693Z" fill="#0068FF"/>
<path d="M103.155 0H102.484V11.4348H103.155V0Z" fill="#0068FF"/>
<path d="M172.554 114.356C172.554 114.392 138.949 114.423 97.5026 114.423C56.056 114.423 22.4458 114.4 22.4458 114.356C22.4458 114.311 56.0456 114.288 97.5026 114.288C138.96 114.288 172.554 114.317 172.554 114.356Z" fill="#263238"/>
<path d="M30.7554 98.0719C31.195 98.1037 31.6237 98.2236 32.0159 98.4246C32.4081 98.6256 32.7558 98.9036 33.0382 99.2419C33.5998 99.9226 33.9974 100.723 34.2004 101.582C34.6398 103.225 34.3694 105.167 33.9014 106.803C32.123 106.166 31.0232 104.268 30.5214 103.269C29.7414 101.694 29.276 98.3657 30.7476 98.0693" fill="#0068FF"/>
<path d="M36.4623 108.797C36.1953 108.383 36.0426 107.905 36.0197 107.413C35.9969 106.921 36.1047 106.431 36.3323 105.994C36.567 105.561 36.8856 105.179 37.2695 104.871C37.6534 104.562 38.095 104.334 38.5683 104.198C39.0025 104.062 39.5069 104.008 39.8839 104.26C40.0539 104.389 40.1862 104.56 40.2672 104.757C40.3481 104.954 40.3747 105.17 40.3441 105.381C40.2759 105.803 40.0964 106.2 39.8241 106.53C38.9583 107.702 37.9079 108.677 36.4441 108.797" fill="#0068FF"/>
<path d="M36.66 114.291C36.6214 114.18 36.5944 114.066 36.5794 113.95C36.5326 113.706 36.4702 113.391 36.3948 113.014C36.1614 111.982 36.0965 110.919 36.2024 109.866C36.325 108.807 36.728 107.801 37.3698 106.951C37.5659 106.697 37.792 106.467 38.0432 106.267C38.1115 106.213 38.1826 106.163 38.2564 106.116C38.2799 106.097 38.3062 106.081 38.3344 106.07C38.0055 106.351 37.7051 106.663 37.4374 107.003C36.8295 107.854 36.4467 108.845 36.3246 109.884C36.1582 111.095 36.3636 112.206 36.4832 113.004C36.5456 113.402 36.5976 113.724 36.6262 113.948C36.6467 114.061 36.658 114.176 36.66 114.291Z" fill="#263238"/>
<path d="M31.3274 100.576C31.3571 100.617 31.3815 100.661 31.4002 100.708C31.447 100.812 31.5094 100.942 31.5822 101.106C31.7408 101.452 31.9618 101.954 32.2296 102.575C32.7652 103.82 33.4828 105.552 34.2316 107.481C34.9804 109.41 35.6174 111.171 36.0516 112.452C36.2752 113.092 36.4494 113.612 36.5716 113.973C36.6262 114.145 36.6678 114.283 36.7016 114.389C36.7201 114.437 36.7332 114.487 36.7406 114.538C36.7142 114.494 36.6933 114.446 36.6782 114.397C36.6392 114.293 36.5898 114.158 36.5248 113.989L35.9762 112.481C35.5108 111.21 34.8608 109.452 34.1146 107.525C33.3684 105.599 32.6612 103.862 32.1464 102.609C31.8864 101.993 31.6862 101.491 31.538 101.124C31.4704 100.958 31.4158 100.825 31.3742 100.719C31.3547 100.672 31.339 100.625 31.3274 100.576Z" fill="#263238"/>
<path d="M34.5462 110.656C34.0112 109.765 33.2719 109.015 32.3894 108.466C31.5069 107.918 30.5065 107.587 29.471 107.502C28.951 107.466 28.3114 107.554 28.0774 108.022C27.8434 108.49 28.1554 109.062 28.5142 109.442C29.2765 110.239 30.2579 110.793 31.3346 111.034C32.4113 111.274 33.5351 111.191 34.5644 110.794" fill="#0068FF"/>
<path d="M30.2717 108.911C30.382 108.906 30.4925 108.91 30.6019 108.924C30.7301 108.931 30.8578 108.946 30.9841 108.968C31.1323 108.997 31.3065 109.013 31.4885 109.065C31.692 109.108 31.8926 109.163 32.0891 109.231C32.3169 109.304 32.54 109.391 32.7573 109.491C33.2572 109.715 33.7299 109.995 34.1665 110.326C34.5981 110.664 34.989 111.052 35.3313 111.48C35.4792 111.667 35.6155 111.862 35.7395 112.065C35.8517 112.24 35.9541 112.422 36.0463 112.608C36.1245 112.76 36.1939 112.917 36.2543 113.076C36.3065 113.195 36.3508 113.316 36.3869 113.44C36.4255 113.544 36.4542 113.651 36.4727 113.76C36.4441 113.76 36.3193 113.313 35.9683 112.647C35.8728 112.469 35.7677 112.295 35.6537 112.127C35.527 111.93 35.3899 111.74 35.2429 111.558C34.5629 110.718 33.6956 110.048 32.7105 109.603C32.4843 109.504 32.2685 109.41 32.0579 109.343C31.8646 109.272 31.6676 109.212 31.4677 109.163C30.7397 108.963 30.2691 108.94 30.2717 108.911Z" fill="#263238"/>
<path d="M148.294 27.4248C147.529 27.599 147.157 28.4804 147.085 29.2604C147.012 30.0404 147.111 30.8672 146.783 31.5796C146.414 32.3804 145.532 32.9732 145.504 33.8546C145.486 34.3928 145.805 34.8946 145.79 35.438C145.764 36.322 144.864 36.998 144.815 37.8716C144.781 38.5086 145.205 39.117 145.103 39.7462C145.025 40.235 144.643 40.6198 144.482 41.0878C144.162 42.0238 144.804 43.0508 145.639 43.576C146.107 43.87 146.633 44.0583 147.181 44.1278C147.728 44.1974 148.285 44.1464 148.811 43.9785C149.337 43.8107 149.82 43.5299 150.227 43.1559C150.633 42.7819 150.953 42.3237 151.164 41.8132C151.627 40.69 151.525 39.4238 151.424 38.2148C151.112 34.4431 150.88 30.6662 150.727 26.884" fill="#263238"/>
<path d="M146.073 40.7315C146.23 40.6337 146.353 40.4892 146.424 40.3181C146.499 40.1146 146.529 39.8973 146.513 39.6811C146.484 39.3944 146.42 39.1124 146.323 38.8413C146.198 38.5006 146.152 38.1363 146.188 37.7753C146.253 37.3697 146.544 37.0369 146.806 36.7093C146.948 36.549 147.066 36.3695 147.157 36.1763C147.249 35.9809 147.264 35.7582 147.199 35.5523C147.064 35.1285 146.648 34.8165 146.458 34.3251C146.369 34.0818 146.354 33.8175 146.416 33.5659C146.475 33.33 146.563 33.1022 146.676 32.8873C146.896 32.5003 147.07 32.0894 147.196 31.6627C147.378 30.8385 147.293 30.0507 147.417 29.4033C147.487 28.8848 147.717 28.401 148.075 28.0201C148.177 27.9175 148.292 27.8299 148.418 27.7601C148.462 27.7374 148.508 27.7208 148.556 27.7107C148.393 27.8004 148.244 27.9124 148.112 28.0435C147.779 28.4282 147.57 28.9037 147.511 29.4085C147.465 29.7533 147.441 30.1007 147.438 30.4485C147.437 30.8578 147.397 31.2662 147.319 31.6679C147.194 32.1044 147.02 32.525 146.799 32.9211C146.604 33.3293 146.424 33.8077 146.596 34.2549C146.767 34.7021 147.181 35.0115 147.339 35.4899C147.411 35.7262 147.393 35.9806 147.29 36.2049C147.189 36.4176 147.057 36.6146 146.9 36.7899C146.64 37.1175 146.357 37.4295 146.294 37.7935C146.258 38.1387 146.299 38.4878 146.414 38.8153C146.507 39.0948 146.564 39.3847 146.585 39.6785C146.598 39.9047 146.558 40.1308 146.468 40.3389C146.412 40.4693 146.323 40.5824 146.208 40.6665C146.168 40.6963 146.122 40.7183 146.073 40.7315Z" fill="#455A64"/>
<path d="M144.04 46.8962L141.7 53.6562L131.914 54.1762L130.281 57.8162L140.499 58.8562C140.982 59.0544 141.499 59.1527 142.021 59.1451C142.543 59.1375 143.058 59.0242 143.535 58.8121C144.011 58.5999 144.44 58.2933 144.795 57.9108C145.15 57.5283 145.424 57.0777 145.6 56.5864L148.327 48.9736L144.04 46.8962Z" fill="#E1B6A6"/>
<path d="M164.271 110.682C164.271 110.682 157.1 87.9007 156.946 87.1623C156.809 86.4915 159.546 70.0985 159.895 65.8423L150.205 66.2037V66.2999L146.086 66.5287L149.773 113.1H154.232L153.79 97.6429C156.541 105.024 160.482 112.549 160.482 112.549L164.271 110.682Z" fill="#E1B6A6"/>
<path d="M153.972 103.189C153.972 103.048 153.917 98.0096 153.917 98.0096C153.863 98.3112 152.209 93.6364 152.248 93.353C152.269 93.2048 153.972 103.189 153.972 103.189Z" fill="#D19684"/>
<path d="M152.061 91.1377C152.038 91.2303 152.028 91.3258 152.032 91.4211C152.018 91.6809 152.018 91.9413 152.032 92.2011C152.032 92.3649 152.056 92.5417 152.077 92.7341C152.097 92.9265 152.126 93.1293 152.17 93.3399C152.263 93.7998 152.385 94.2532 152.537 94.6971C152.859 95.6409 153.218 96.4651 153.47 97.0631C153.59 97.3231 153.694 97.5701 153.782 97.7677C153.814 97.8596 153.858 97.947 153.912 98.0277C153.898 97.9378 153.872 97.8503 153.834 97.7677C153.774 97.5961 153.683 97.3491 153.574 97.0449C153.345 96.4365 153.002 95.6045 152.682 94.6711C152.531 94.2337 152.407 93.7874 152.311 93.3347C152.264 93.1267 152.233 92.9265 152.204 92.7393C152.175 92.5521 152.155 92.3753 152.142 92.2193C152.11 91.8969 152.097 91.6369 152.09 91.4549C152.095 91.3484 152.085 91.2416 152.061 91.1377Z" fill="#D19684"/>
<path d="M149.69 113.337V112.918L154.258 112.718L154.271 114.447L153.99 114.465C152.734 114.538 147.607 114.751 146.77 114.499C145.831 114.218 149.69 113.337 149.69 113.337Z" fill="#455A64"/>
<path d="M154.331 114.343C154.305 114.344 154.279 114.344 154.253 114.343L154.029 114.358L153.202 114.395C152.506 114.423 151.541 114.449 150.478 114.455C149.414 114.46 148.447 114.442 147.748 114.421L146.923 114.387H146.697H146.619C146.645 114.385 146.671 114.385 146.697 114.387H146.923L147.75 114.403C148.447 114.403 149.412 114.423 150.475 114.418C151.538 114.413 152.506 114.395 153.202 114.377L154.029 114.356H154.331V114.343Z" fill="#263238"/>
<path d="M148.2 114.488C148.162 114.352 148.11 114.221 148.044 114.096C147.962 113.981 147.867 113.875 147.76 113.781C147.902 113.832 148.02 113.934 148.091 114.067C148.177 114.19 148.215 114.339 148.2 114.488Z" fill="#263238"/>
<path d="M149.547 113.805C149.547 113.805 149.471 113.734 149.404 113.63C149.336 113.526 149.295 113.435 149.308 113.428C149.321 113.42 149.383 113.495 149.451 113.599C149.518 113.703 149.56 113.797 149.547 113.805Z" fill="#263238"/>
<path d="M149.916 113.62C149.916 113.633 149.833 113.583 149.755 113.513C149.677 113.443 149.619 113.378 149.63 113.368C149.64 113.357 149.713 113.404 149.791 113.474C149.869 113.544 149.926 113.596 149.916 113.62Z" fill="#263238"/>
<path d="M150.147 113.178C150.071 113.206 149.989 113.217 149.908 113.209C149.829 113.22 149.748 113.212 149.672 113.186C149.747 113.158 149.828 113.147 149.908 113.154C149.989 113.143 150.071 113.151 150.147 113.178Z" fill="#263238"/>
<path d="M150.225 112.876C150.148 112.927 150.058 112.954 149.965 112.954C149.877 112.966 149.787 112.953 149.705 112.918C149.791 112.904 149.878 112.897 149.965 112.897C150.051 112.882 150.138 112.875 150.225 112.876Z" fill="#263238"/>
<path d="M149.393 113.407C149.296 113.425 149.197 113.425 149.1 113.407C148.995 113.394 148.891 113.371 148.79 113.339C148.728 113.322 148.668 113.297 148.611 113.266C148.576 113.246 148.55 113.213 148.538 113.175C148.533 113.154 148.535 113.131 148.543 113.11C148.551 113.089 148.564 113.071 148.582 113.058C148.654 113.023 148.733 113.005 148.813 113.004C148.893 113.003 148.972 113.02 149.045 113.054C149.117 113.088 149.182 113.137 149.233 113.198C149.284 113.26 149.321 113.332 149.341 113.409C149.347 113.435 149.347 113.461 149.341 113.487C149.312 113.393 149.266 113.305 149.206 113.227C149.137 113.149 149.047 113.093 148.946 113.066C148.831 113.029 148.706 113.038 148.598 113.092C148.554 113.126 148.572 113.18 148.621 113.212C148.674 113.24 148.73 113.264 148.788 113.282C148.885 113.314 148.985 113.339 149.087 113.357C149.282 113.399 149.393 113.399 149.393 113.407Z" fill="#263238"/>
<path d="M149.318 113.422C149.28 113.362 149.267 113.289 149.282 113.219C149.291 113.143 149.319 113.07 149.362 113.006C149.387 112.963 149.421 112.926 149.464 112.9C149.506 112.874 149.554 112.858 149.604 112.855C149.633 112.862 149.659 112.88 149.676 112.905C149.693 112.93 149.7 112.961 149.695 112.991C149.689 113.037 149.672 113.082 149.646 113.121C149.606 113.185 149.56 113.245 149.508 113.3C149.463 113.352 149.405 113.392 149.341 113.417C149.341 113.417 149.399 113.365 149.479 113.271C149.526 113.218 149.567 113.159 149.601 113.097C149.64 113.035 149.669 112.923 149.601 112.91C149.534 112.897 149.456 112.978 149.412 113.035C149.37 113.091 149.342 113.156 149.328 113.225C149.318 113.29 149.314 113.356 149.318 113.422Z" fill="#263238"/>
<path d="M154.235 113.1C154.235 113.1 154.105 113.1 153.899 113.113C153.632 113.145 153.379 113.251 153.169 113.42C152.959 113.589 152.8 113.813 152.711 114.067C152.643 114.262 152.638 114.395 152.628 114.392C152.617 114.39 152.628 114.358 152.628 114.301C152.634 114.217 152.65 114.135 152.675 114.054C152.757 113.788 152.916 113.552 153.132 113.376C153.351 113.202 153.616 113.098 153.894 113.077C153.98 113.066 154.068 113.066 154.154 113.077C154.182 113.081 154.209 113.089 154.235 113.1Z" fill="#263238"/>
<path d="M152.048 113.979C151.83 114.03 151.606 114.051 151.382 114.044C151.16 114.055 150.937 114.036 150.719 113.987C150.719 113.971 151.016 113.987 151.382 113.987C151.749 113.987 152.045 113.963 152.048 113.979Z" fill="#263238"/>
<path d="M152.937 113.971C152.937 113.971 152.914 114.033 152.883 114.101C152.851 114.169 152.836 114.231 152.82 114.228C152.805 114.226 152.797 114.158 152.833 114.078C152.87 113.997 152.927 113.958 152.937 113.971Z" fill="#263238"/>
<path d="M153.273 113.552C153.273 113.552 153.254 113.61 153.208 113.656C153.161 113.703 153.114 113.734 153.101 113.724C153.088 113.714 153.119 113.667 153.166 113.617C153.213 113.568 153.26 113.539 153.273 113.552Z" fill="#263238"/>
<path d="M153.751 113.36C153.751 113.376 153.689 113.376 153.621 113.399C153.553 113.422 153.507 113.459 153.494 113.448C153.481 113.438 153.52 113.376 153.603 113.347C153.686 113.318 153.756 113.344 153.751 113.36Z" fill="#263238"/>
<path d="M154.092 113.266C154.092 113.282 154.073 113.305 154.034 113.318C153.995 113.331 153.962 113.334 153.956 113.318C153.951 113.303 153.977 113.279 154.014 113.266C154.05 113.253 154.086 113.253 154.092 113.266Z" fill="#263238"/>
<path d="M160.391 112.934L160.22 112.551L164.304 110.5L165.025 112.06L164.765 112.193C163.649 112.772 159.06 115.066 158.192 115.18C157.232 115.318 160.391 112.934 160.391 112.934Z" fill="#455A64"/>
<path d="M165.04 111.948L164.973 111.99L164.772 112.094L164.034 112.468C163.41 112.778 162.542 113.196 161.572 113.638C160.602 114.08 159.713 114.457 159.068 114.725L158.301 115.034L158.093 115.115C158.069 115.126 158.044 115.134 158.018 115.138L158.088 115.105L158.293 115.014L159.052 114.689C159.695 114.413 160.579 114.028 161.548 113.586C162.518 113.144 163.389 112.733 164.018 112.432L164.762 112.076L164.967 111.979L165.04 111.948Z" fill="#263238"/>
<path d="M159.515 114.592C159.425 114.483 159.323 114.383 159.211 114.296C159.089 114.224 158.959 114.166 158.823 114.124C158.973 114.122 159.119 114.166 159.243 114.25C159.366 114.333 159.461 114.453 159.515 114.592Z" fill="#263238"/>
<path d="M160.454 113.417C160.454 113.417 160.355 113.386 160.251 113.318C160.147 113.251 160.071 113.186 160.079 113.173C160.087 113.16 160.178 113.204 160.282 113.271C160.386 113.339 160.461 113.404 160.454 113.417Z" fill="#263238"/>
<path d="M160.709 113.1C160.709 113.113 160.62 113.1 160.519 113.069C160.417 113.037 160.342 112.998 160.345 112.983C160.41 112.977 160.477 112.987 160.537 113.014C160.636 113.038 160.714 113.074 160.709 113.1Z" fill="#263238"/>
<path d="M160.745 112.601C160.745 112.616 160.659 112.671 160.54 112.728C160.471 112.77 160.393 112.795 160.313 112.804C160.313 112.788 160.399 112.733 160.516 112.676C160.586 112.635 160.664 112.609 160.745 112.601Z" fill="#263238"/>
<path d="M160.693 112.294C160.693 112.294 160.617 112.398 160.482 112.473C160.406 112.525 160.315 112.553 160.222 112.551C160.297 112.501 160.376 112.459 160.459 112.424C160.586 112.354 160.68 112.281 160.693 112.294Z" fill="#263238"/>
<path d="M160.16 113.121C160.081 113.175 159.993 113.216 159.9 113.24C159.798 113.27 159.694 113.292 159.588 113.305C159.524 113.313 159.459 113.313 159.396 113.305C159.355 113.302 159.318 113.284 159.292 113.253C159.279 113.235 159.273 113.213 159.273 113.191C159.273 113.169 159.279 113.147 159.292 113.129C159.371 113.033 159.48 112.967 159.602 112.944C159.724 112.92 159.851 112.939 159.96 112.999C160.024 113.032 160.081 113.079 160.126 113.136C160.157 113.178 160.17 113.204 160.168 113.207C160.104 113.135 160.027 113.076 159.942 113.032C159.85 112.989 159.748 112.974 159.648 112.988C159.588 112.994 159.53 113.012 159.478 113.041C159.425 113.069 159.379 113.108 159.341 113.155C159.312 113.204 159.341 113.246 159.411 113.253C159.471 113.258 159.531 113.258 159.591 113.253C159.694 113.243 159.797 113.225 159.897 113.199C160.046 113.157 160.16 113.113 160.16 113.121Z" fill="#263238"/>
<path d="M160.087 113.165C160.029 113.124 159.988 113.063 159.973 112.993C159.95 112.92 159.944 112.843 159.957 112.767C159.962 112.717 159.979 112.669 160.007 112.628C160.035 112.586 160.073 112.553 160.118 112.531C160.183 112.51 160.334 112.642 160.345 112.692C160.355 112.741 160.269 112.715 160.264 112.757C160.255 112.831 160.238 112.903 160.212 112.973C160.193 113.039 160.157 113.1 160.108 113.149C160.108 113.149 160.139 113.079 160.175 112.962C160.194 112.893 160.207 112.823 160.215 112.752C160.215 112.679 160.215 112.567 160.131 112.585C160.048 112.603 160.025 112.705 160.006 112.778C159.991 112.845 159.991 112.915 160.006 112.983C160.028 113.046 160.055 113.107 160.087 113.165Z" fill="#263238"/>
<path d="M164.442 110.854C164.442 110.854 164.317 110.898 164.141 111.004C163.909 111.143 163.721 111.342 163.597 111.582C163.477 111.823 163.426 112.093 163.449 112.362C163.465 112.57 163.514 112.689 163.504 112.694C163.487 112.669 163.474 112.641 163.465 112.611C163.439 112.532 163.421 112.45 163.41 112.367C163.373 112.09 163.421 111.808 163.548 111.559C163.674 111.31 163.874 111.106 164.12 110.973C164.193 110.932 164.271 110.899 164.351 110.874C164.38 110.863 164.411 110.856 164.442 110.854Z" fill="#263238"/>
<path d="M162.807 112.554C162.44 112.809 162.031 112.996 161.598 113.105C161.598 113.09 161.871 112.986 162.204 112.845C162.536 112.705 162.799 112.541 162.807 112.554Z" fill="#263238"/>
<path d="M163.615 112.182C163.628 112.182 163.615 112.247 163.615 112.322C163.615 112.398 163.615 112.46 163.615 112.465C163.615 112.471 163.563 112.408 163.563 112.322C163.563 112.237 163.602 112.174 163.615 112.182Z" fill="#263238"/>
<path d="M163.748 111.662C163.761 111.662 163.748 111.722 163.732 111.784C163.717 111.847 163.678 111.893 163.665 111.888C163.652 111.883 163.665 111.828 163.68 111.766C163.696 111.704 163.732 111.657 163.748 111.662Z" fill="#263238"/>
<path d="M164.107 111.28C164.107 111.296 164.055 111.319 164.003 111.368C163.951 111.418 163.922 111.47 163.909 111.465C163.896 111.459 163.909 111.387 163.966 111.327C164.024 111.267 164.104 111.28 164.107 111.28Z" fill="#263238"/>
<path d="M164.38 111.067C164.38 111.067 164.38 111.108 164.349 111.137C164.317 111.166 164.289 111.181 164.278 111.171C164.268 111.16 164.278 111.129 164.31 111.101C164.341 111.072 164.369 111.056 164.38 111.067Z" fill="#263238"/>
<path d="M159.265 58.1463L158.506 48.8644L162.406 48.9346C162.406 48.9346 162.586 47.5643 162.011 44.5639C161.657 42.7231 160.433 41.5947 159.057 40.9239V40.898L158.938 40.8667C157.806 40.3584 156.596 40.043 155.36 39.9333L150.563 39.988C150.563 39.988 146.9 39.5199 144.88 42.1433C144.1 43.1495 141.679 50.0369 141.679 50.0369L147.438 52.8085L146.9 48.9892C146.9 48.9892 147.009 51.7582 147.363 52.6291C147.558 53.1179 148.143 54.6363 148.143 54.6363L148.067 59.2175L159.265 58.1463Z" fill="#0068FF"/>
<path d="M156.621 47.5176L155.909 50.5492H162.625L162.183 45.4636L156.621 47.5176Z" fill="#0068FF"/>
<path d="M162.625 50.5491C162.331 50.4951 162.034 50.4655 161.736 50.4607C161.184 50.4295 160.436 50.4009 159.583 50.4061C158.73 50.4113 157.979 50.4477 157.427 50.4893C157.129 50.4997 156.833 50.5363 156.541 50.5985C156.838 50.6222 157.138 50.6222 157.435 50.5985C157.984 50.5803 158.735 50.5595 159.583 50.5569C160.43 50.5543 161.182 50.5569 161.733 50.5699C162.03 50.5866 162.329 50.5796 162.625 50.5491Z" fill="#263238"/>
<path d="M156.33 45.4402C156.298 45.6989 156.291 45.9601 156.309 46.2202C156.309 46.696 156.33 47.3512 156.359 48.0766C156.387 48.802 156.421 49.4598 156.452 49.933C156.454 50.1951 156.481 50.4565 156.536 50.713C156.567 50.4543 156.574 50.1931 156.556 49.933C156.556 49.4572 156.536 48.7994 156.507 48.074C156.478 47.3486 156.445 46.6934 156.413 46.2176C156.412 45.9563 156.384 45.6958 156.33 45.4402Z" fill="#263238"/>
<g opacity="0.3">
<path d="M150.22 48.0662C150.22 48.0662 151.712 59.1344 155.909 58.8406C155.909 58.8406 157.799 58.8198 158.405 57.564V57.07L150.22 48.0662Z" fill="black"/>
</g>
<g opacity="0.3">
<path d="M156.33 46.0928L155.527 51.519L156.047 52.4706L156.905 50.609L156.541 50.5986L156.33 46.0928Z" fill="black"/>
</g>
<path d="M148.119 54.6415C148.07 54.5605 148.031 54.473 148.005 54.3815C147.94 54.2125 147.854 53.9655 147.745 53.6561C147.485 52.8499 147.27 52.0296 147.103 51.1991C146.936 50.3681 146.83 49.5261 146.786 48.6797C146.77 48.3547 146.765 48.0921 146.77 47.8997C146.763 47.8057 146.769 47.7112 146.788 47.6189C146.809 47.6189 146.825 48.0193 146.879 48.6589C146.952 49.4976 147.071 50.3317 147.235 51.1575C147.428 52.1247 147.659 52.9905 147.836 53.6119C147.919 53.9005 147.989 54.1475 148.047 54.3503C148.082 54.4441 148.107 54.5419 148.119 54.6415Z" fill="#263238"/>
<path d="M149.815 57.8212C149.778 57.8212 149.674 57.595 149.583 57.3012C149.505 57.1212 149.47 56.9252 149.482 56.7292C149.596 56.8881 149.675 57.07 149.713 57.2622C149.788 57.4388 149.822 57.6297 149.815 57.8212Z" fill="#263238"/>
<path d="M150.394 57.7796C150.198 57.2581 150.189 56.6842 150.371 56.1572C150.391 56.4272 150.391 56.6984 150.371 56.9684C150.399 57.2378 150.407 57.509 150.394 57.7796Z" fill="#263238"/>
<path d="M147.555 52.9358C147.537 52.967 146.198 52.3326 144.563 51.5162C142.927 50.6998 141.614 50.0082 141.63 49.9744C141.645 49.9406 142.987 50.5776 144.622 51.394C146.258 52.2104 147.571 52.902 147.555 52.9358Z" fill="#263238"/>
<path d="M149.916 40.8849C149.945 39.5693 149.952 38.1861 149.952 38.1861C149.952 38.1861 148.265 37.8611 147.971 35.6407C147.69 33.5243 148.476 28.5557 148.476 28.5557C150.94 27.6249 153.501 28.4699 155.189 30.4667L154.77 41.1449C154.721 42.3851 153.616 43.3315 152.29 43.2691C150.948 43.2041 149.887 42.1381 149.916 40.8849Z" fill="#E1B6A6"/>
<path d="M148.345 32.526C148.343 32.5989 148.369 32.6699 148.417 32.7245C148.465 32.7791 148.533 32.8132 148.605 32.8198C148.642 32.8233 148.68 32.8193 148.715 32.808C148.75 32.7967 148.783 32.7784 148.811 32.754C148.839 32.7297 148.862 32.6999 148.878 32.6665C148.894 32.6331 148.903 32.5968 148.904 32.5598C148.907 32.4872 148.881 32.4165 148.833 32.3623C148.784 32.3081 148.717 32.2745 148.644 32.2686C148.607 32.2629 148.57 32.2654 148.534 32.2758C148.498 32.2861 148.464 32.3041 148.436 32.3286C148.407 32.353 148.385 32.3833 148.369 32.4174C148.353 32.4515 148.345 32.4885 148.345 32.526Z" fill="#263238"/>
<path d="M148.242 32.154C148.275 32.1904 148.502 32.037 148.801 32.0474C149.1 32.0578 149.321 32.2138 149.357 32.1774C149.393 32.141 149.341 32.0942 149.245 32.0188C149.115 31.9245 148.959 31.8728 148.798 31.8706C148.64 31.8646 148.484 31.9102 148.353 32.0006C148.257 32.0708 148.223 32.1358 148.242 32.154Z" fill="#263238"/>
<path d="M151.442 32.7183C151.439 32.7914 151.465 32.8628 151.513 32.9175C151.562 32.9723 151.629 33.0062 151.702 33.0122C151.739 33.0178 151.777 33.0153 151.814 33.0048C151.85 32.9943 151.883 32.976 151.912 32.9513C151.94 32.9266 151.963 32.8959 151.978 32.8616C151.994 32.8272 152.002 32.7898 152.001 32.7522C152.004 32.6794 151.979 32.6083 151.93 32.554C151.881 32.4996 151.814 32.4663 151.741 32.4609C151.704 32.4553 151.666 32.4578 151.63 32.4681C151.594 32.4785 151.561 32.4965 151.532 32.521C151.504 32.5454 151.481 32.5757 151.466 32.6098C151.45 32.6438 151.442 32.6809 151.442 32.7183Z" fill="#263238"/>
<path d="M151.421 32.3465C151.455 32.3855 151.681 32.2321 151.98 32.2399C152.279 32.2477 152.5 32.4063 152.539 32.3699C152.578 32.3335 152.521 32.2867 152.425 32.2139C152.297 32.1171 152.141 32.0642 151.98 32.0631C151.821 32.0583 151.665 32.1038 151.533 32.1931C151.44 32.2633 151.406 32.3283 151.421 32.3465Z" fill="#263238"/>
<path d="M150.256 34.5798C150.097 34.525 149.931 34.4909 149.762 34.4784C149.684 34.4784 149.612 34.4498 149.601 34.3978C149.595 34.3166 149.615 34.2354 149.658 34.1664L149.903 33.5814C150.13 33.0842 150.317 32.5695 150.462 32.0422C150.196 32.52 149.968 33.0181 149.781 33.532C149.7 33.7374 149.619 33.935 149.544 34.1222C149.494 34.2151 149.477 34.3227 149.497 34.4264C149.507 34.4546 149.524 34.4801 149.546 34.5008C149.567 34.5216 149.593 34.537 149.622 34.546C149.665 34.5585 149.71 34.5655 149.755 34.5668C149.921 34.5924 150.089 34.5968 150.256 34.5798Z" fill="#263238"/>
<path d="M149.952 38.1862C150.993 38.2278 152.024 37.9803 152.932 37.4712C152.932 37.4712 152.175 38.9714 149.968 38.7088L149.952 38.1862Z" fill="#D19684"/>
<path d="M152.399 31.4598C152.337 31.556 152.103 31.5144 151.843 31.4598C151.583 31.4052 151.354 31.361 151.323 31.2492C151.291 31.1374 151.564 30.9892 151.913 31.0594C152.261 31.1296 152.461 31.3766 152.399 31.4598Z" fill="#263238"/>
<path d="M149.365 31.0179C149.341 31.1297 149.092 31.1713 148.806 31.1843C148.52 31.1973 148.268 31.1843 148.234 31.0699C148.2 30.9555 148.442 30.7943 148.788 30.7787C149.133 30.7631 149.388 30.9113 149.365 31.0179Z" fill="#263238"/>
<path d="M150.262 35.3105C150.229 35.3027 150.194 35.3062 150.164 35.3203C150.133 35.3345 150.108 35.3585 150.093 35.3885C150.078 35.415 150.07 35.445 150.071 35.4753C150.071 35.5057 150.079 35.5354 150.095 35.5616C150.11 35.5878 150.132 35.6095 150.158 35.6246C150.185 35.6397 150.215 35.6476 150.245 35.6476C150.275 35.6476 150.305 35.6397 150.331 35.6246C150.358 35.6095 150.38 35.5878 150.395 35.5616C150.41 35.5354 150.419 35.5057 150.419 35.4753C150.419 35.445 150.412 35.415 150.397 35.3885C150.378 35.3536 150.348 35.3261 150.312 35.3105C150.276 35.2949 150.235 35.2921 150.197 35.3027" fill="#D19684"/>
<path d="M150.332 35.3416C150.332 35.3286 150.283 35.2532 150.15 35.2818C150.11 35.2922 150.074 35.3127 150.045 35.3415C150.016 35.3702 149.994 35.4061 149.984 35.4456C149.97 35.4954 149.971 35.5482 149.987 35.5973C150.003 35.6464 150.034 35.6895 150.075 35.7212C150.118 35.7508 150.169 35.7667 150.221 35.7667C150.274 35.7667 150.325 35.7508 150.368 35.7212C150.403 35.6979 150.43 35.6652 150.447 35.627C150.463 35.5888 150.469 35.5466 150.462 35.5054C150.436 35.3676 150.335 35.3468 150.329 35.365C150.324 35.3832 150.366 35.43 150.358 35.5106C150.356 35.5305 150.35 35.5497 150.339 35.5665C150.328 35.5833 150.313 35.5971 150.296 35.6068C150.275 35.6185 150.252 35.6246 150.229 35.6246C150.206 35.6246 150.183 35.6185 150.163 35.6068C150.145 35.5914 150.131 35.5716 150.123 35.5493C150.115 35.527 150.112 35.5029 150.116 35.4794C150.119 35.4589 150.127 35.4394 150.139 35.4226C150.152 35.4058 150.168 35.3923 150.186 35.3832C150.259 35.339 150.324 35.3598 150.332 35.3416Z" fill="#263238"/>
<path d="M154.18 33.0745C153.92 33.6829 153.275 34.1535 153.364 34.8113C153.421 35.2351 153.694 35.6303 153.642 36.0567C153.574 36.5767 153.02 36.9615 152.94 37.4945C152.844 38.1471 153.481 38.6541 153.733 39.2625C154.105 40.1517 153.631 41.1501 153.618 42.1225C153.634 42.8607 153.916 43.5684 154.413 44.1144C154.911 44.6603 155.589 45.0075 156.322 45.0917C156.915 45.1411 157.583 44.9617 157.882 44.4521C158.142 44.0309 158.085 43.4953 158.236 43.0299C158.465 42.3331 159.128 41.8235 159.276 41.1059C159.536 39.8059 157.95 38.7139 158.054 37.3827C158.098 36.8133 158.449 36.3193 158.597 35.7681C158.692 35.4058 158.699 35.0264 158.619 34.6608C158.538 34.2952 158.372 33.9538 158.135 33.6647C157.742 33.1993 157.175 32.8847 156.835 32.3855C156.458 31.8109 156.445 31.0855 156.315 30.4069C156.14 29.582 155.759 28.8149 155.208 28.1773C154.656 27.5396 153.952 27.0521 153.161 26.7605C152.37 26.4689 151.518 26.3825 150.684 26.5096C149.851 26.6367 149.063 26.973 148.395 27.4871C148.395 27.4871 148.018 29.2005 149.778 29.4891C151.538 29.7777 152.352 29.4449 152.55 30.1495C152.503 30.4397 152.526 30.7369 152.616 31.0166C152.707 31.2964 152.862 31.5507 153.07 31.7589C153.787 32.5337 154.471 32.3673 154.18 33.0745Z" fill="#263238"/>
<path d="M156.975 44.9591C156.921 44.961 156.867 44.9557 156.814 44.9435C156.661 44.9165 156.512 44.8756 156.367 44.8213C155.83 44.6155 155.359 44.2677 155.004 43.8151C154.755 43.5028 154.56 43.1514 154.427 42.7751C154.275 42.3466 154.195 41.8959 154.19 41.4413C154.185 40.9403 154.248 40.4408 154.378 39.9567C154.448 39.7011 154.535 39.4501 154.638 39.2053C154.745 38.9617 154.839 38.7126 154.921 38.4591C154.992 38.2093 154.992 37.9445 154.921 37.6947C154.845 37.4488 154.746 37.2104 154.627 36.9823C154.507 36.7562 154.405 36.5205 154.323 36.2777C154.243 36.0374 154.224 35.7809 154.268 35.5315C154.372 35.0427 154.669 34.6787 154.846 34.3069C155.014 33.9628 155.094 33.5822 155.08 33.1993C155.056 32.639 154.853 32.1012 154.5 31.6653C154.363 31.5126 154.216 31.3693 154.06 31.2363C154.243 31.3388 154.405 31.4725 154.541 31.6315C154.92 32.0667 155.143 32.6155 155.176 33.1915C155.197 33.5911 155.119 33.9897 154.947 34.3511C154.768 34.7359 154.479 35.1025 154.391 35.5497C154.302 35.9969 154.513 36.4675 154.744 36.9199C154.87 37.1545 154.973 37.401 155.051 37.6557C155.128 37.9277 155.128 38.2157 155.051 38.4877C154.964 38.75 154.865 39.0078 154.752 39.2599C154.65 39.4994 154.563 39.7452 154.492 39.9957C154.363 40.4675 154.299 40.9548 154.302 41.4439C154.294 42.277 154.563 43.0891 155.067 43.7527C155.403 44.1997 155.852 44.5502 156.367 44.7693C156.754 44.9201 156.978 44.9435 156.975 44.9591Z" fill="#455A64"/>
<path d="M156.715 31.8395C156.588 31.8723 156.458 31.8914 156.328 31.8967C155.971 31.9348 155.611 31.9252 155.256 31.8681C154.988 31.8283 154.73 31.7354 154.498 31.5948C154.266 31.4541 154.064 31.2686 153.904 31.0491C153.756 30.7713 153.637 30.4784 153.551 30.1755C153.44 29.8728 153.231 29.6158 152.958 29.4449C152.389 29.0835 151.72 29.0393 151.138 28.9691C150.601 28.9423 150.079 28.7795 149.622 28.4959C149.316 28.293 149.095 27.985 149.001 27.6301C148.978 27.5339 148.972 27.4345 148.983 27.3363C148.983 27.2687 148.998 27.2349 149.003 27.2349C149.006 27.3636 149.023 27.4917 149.053 27.6171C149.16 27.9489 149.381 28.2324 149.677 28.4179C150.125 28.6796 150.632 28.8261 151.151 28.8443C151.733 28.9119 152.425 28.9457 153.033 29.3305C153.331 29.5174 153.558 29.7983 153.678 30.1287C153.76 30.4239 153.872 30.7098 154.014 30.9815C154.316 31.3969 154.77 31.677 155.277 31.7615C155.62 31.8252 155.969 31.8487 156.317 31.8317C156.45 31.8242 156.583 31.8268 156.715 31.8395Z" fill="#455A64"/>
<path d="M156.07 29.7232C155.972 29.756 155.869 29.7709 155.766 29.7674C155.281 29.7707 154.815 29.584 154.466 29.2474C154.307 29.0879 154.171 28.9067 154.063 28.7092C153.829 28.314 153.603 27.8278 153.116 27.625C152.648 27.4678 152.149 27.4242 151.66 27.4976C151.248 27.5555 150.83 27.5555 150.418 27.4976C150.131 27.4578 149.861 27.339 149.638 27.1544C149.58 27.1041 149.529 27.0464 149.487 26.9828C149.456 26.9377 149.443 26.9143 149.448 26.9126C149.448 26.9126 149.521 26.9958 149.671 27.1128C149.894 27.2709 150.152 27.371 150.423 27.404C150.828 27.4496 151.237 27.4426 151.64 27.3832C152.15 27.2999 152.672 27.3446 153.161 27.5132C153.412 27.626 153.627 27.806 153.782 28.0332C153.919 28.2359 154.045 28.4459 154.159 28.6624C154.262 28.8514 154.388 29.0262 154.536 29.1824C154.667 29.3145 154.817 29.4259 154.981 29.5126C155.223 29.6389 155.488 29.7124 155.761 29.7284C155.961 29.7258 156.067 29.7102 156.07 29.7232Z" fill="#455A64"/>
<path d="M157.75 44.3975C157.737 44.3975 157.82 44.2259 157.916 43.9035C158.046 43.4509 158.104 42.9806 158.088 42.5099C158.069 41.8132 157.879 41.1318 157.534 40.5261C157.344 40.1855 157.056 39.8813 156.819 39.5069C156.694 39.3162 156.606 39.1036 156.559 38.8803C156.518 38.6452 156.538 38.4036 156.616 38.1783C156.762 37.7285 157.022 37.3515 157.079 36.9381C157.136 36.5247 156.939 36.1581 156.741 35.8123C156.639 35.644 156.546 35.4704 156.463 35.2923C156.387 35.1195 156.337 34.9364 156.315 34.7489C156.29 34.4185 156.301 34.0865 156.346 33.7583C156.429 33.2944 156.386 32.8166 156.221 32.3751C156.147 32.2204 156.043 32.0824 155.914 31.9695C155.914 31.9695 155.927 31.9695 155.945 31.9851C155.976 32.0004 156.004 32.0206 156.029 32.0449C156.13 32.1296 156.213 32.2351 156.27 32.3543C156.458 32.7996 156.517 33.289 156.439 33.7661C156.404 34.0882 156.399 34.413 156.426 34.7359C156.491 35.0991 156.634 35.4437 156.848 35.7447C156.959 35.9204 157.053 36.1057 157.131 36.2985C157.213 36.5065 157.24 36.7322 157.209 36.9537C157.147 37.4087 156.879 37.7935 156.744 38.2173C156.673 38.4218 156.654 38.6407 156.689 38.8543C156.734 39.0609 156.817 39.2574 156.933 39.4341C157.154 39.7955 157.453 40.1049 157.643 40.4611C157.992 41.0873 158.177 41.7908 158.184 42.5073C158.192 42.9869 158.118 43.4644 157.966 43.9191C157.924 44.0421 157.874 44.162 157.815 44.2779C157.799 44.3206 157.777 44.3609 157.75 44.3975Z" fill="#455A64"/>
<path d="M147.16 92.8434C147.16 92.8434 145.408 76.245 145.306 70.1116C145.205 63.9782 148.065 57.9254 148.065 57.9254L159.266 57.46C159.266 57.46 161.481 63.6818 161.52 66.3C161.598 71.3804 160.17 76.3958 160.334 80.4258L160.708 92.8538" fill="#263238"/>
<path d="M161.085 72.436C161.027 72.4868 160.965 72.5337 160.901 72.5764L160.8 72.6466L160.69 72.7532C160.594 72.8365 160.507 72.9298 160.43 73.0314C160.069 73.4734 159.806 74.2664 159.554 75.2518C159.425 75.7984 159.235 76.3287 158.987 76.8326C158.912 76.9707 158.825 77.102 158.727 77.2252C158.68 77.2876 158.636 77.3552 158.582 77.415L158.41 77.5866C158.164 77.8163 157.879 77.9995 157.568 78.1274C156.941 78.403 156.231 78.533 155.586 78.858C154.926 79.2134 154.415 79.7949 154.149 80.496C153.831 81.2006 153.629 81.939 153.369 82.6306C153.109 83.3222 152.758 83.9826 152.199 84.4038C151.664 84.7753 151.03 84.9756 150.379 84.9784C149.775 85.0148 149.216 84.9966 148.715 85.072C148.263 85.1189 147.831 85.2819 147.461 85.5452C147.191 85.7564 146.989 86.042 146.879 86.3668C146.809 86.5717 146.794 86.7913 146.835 87.0038C146.866 87.1494 146.905 87.2196 146.897 87.2222C146.855 87.157 146.826 87.0848 146.809 87.009C146.754 86.7921 146.761 86.5642 146.83 86.3512C146.933 86.0103 147.137 85.7085 147.415 85.4854C147.794 85.1993 148.243 85.0198 148.715 84.9654C149.235 84.8822 149.789 84.8926 150.384 84.8536C151.016 84.8495 151.631 84.6537 152.149 84.292C152.675 83.8329 153.063 83.2371 153.27 82.5708C153.53 81.887 153.72 81.146 154.05 80.4284C154.33 79.6985 154.863 79.0939 155.553 78.7254C156.224 78.3926 156.933 78.2652 157.544 78C157.843 77.8762 158.118 77.7001 158.355 77.48L158.519 77.3162C158.571 77.259 158.615 77.194 158.662 77.1342C158.754 77.016 158.835 76.8899 158.904 76.7572C159.153 76.2603 159.346 75.737 159.479 75.1972C159.739 74.2144 160.022 73.411 160.404 72.9664C160.48 72.8651 160.568 72.7727 160.664 72.6908C160.706 72.6544 160.742 72.618 160.779 72.5894L160.885 72.5218C160.95 72.4892 161.017 72.4606 161.085 72.436Z" fill="#FAFAFA"/>
<path d="M161.153 64.7556C161.165 64.8287 161.17 64.9026 161.169 64.9766C161.168 65.1913 161.142 65.4051 161.091 65.6136C160.867 66.3742 160.427 67.0534 159.825 67.5688C159.427 67.9344 158.991 68.256 158.525 68.5282C158.023 68.8246 157.469 69.108 156.9 69.4304C156.301 69.7511 155.744 70.1431 155.241 70.5978C154.724 71.1105 154.298 71.7075 153.982 72.3632C153.663 73.0278 153.299 73.6698 152.893 74.2846C152.686 74.5712 152.447 74.8329 152.181 75.0646C151.918 75.2883 151.629 75.4794 151.32 75.634C150.761 75.9085 150.179 76.1321 149.581 76.3022C149.024 76.4738 148.504 76.6272 148.052 76.8222C147.641 76.9856 147.25 77.1949 146.887 77.4462C146.613 77.6359 146.368 77.8625 146.156 78.1196C145.979 78.3426 145.832 78.5872 145.717 78.8476C145.735 78.7756 145.76 78.7051 145.79 78.637C145.875 78.4406 145.984 78.2555 146.115 78.0858C146.322 77.8178 146.567 77.5814 146.843 77.3838C147.208 77.1236 147.601 76.9055 148.015 76.7338C148.516 76.5297 149.027 76.3518 149.547 76.2008C150.137 76.0267 150.711 75.8023 151.263 75.53C151.555 75.3773 151.83 75.1925 152.082 74.9788C152.338 74.7504 152.568 74.494 152.768 74.2144C153.169 73.6026 153.53 72.9651 153.847 72.306C154.173 71.6357 154.613 71.027 155.147 70.5068C155.66 70.0453 156.227 69.6488 156.837 69.3264C157.409 69.0066 157.963 68.7284 158.465 68.4346C158.93 68.1715 159.366 67.8595 159.765 67.5038C160.362 67.0038 160.806 66.3449 161.044 65.6032C161.111 65.3254 161.147 65.0413 161.153 64.7556Z" fill="#FAFAFA"/>
<path d="M145.363 70.98C145.353 70.9639 145.345 70.9464 145.34 70.928C145.32 70.8779 145.304 70.8266 145.29 70.7746C145.246 70.5677 145.255 70.353 145.316 70.1506C145.462 69.6306 146.037 68.9624 146.962 68.6322C147.425 68.4736 147.948 68.3722 148.494 68.237C148.947 68.1618 149.376 67.9794 149.745 67.7049C150.113 67.4303 150.411 67.0717 150.613 66.6588C150.761 66.3557 150.89 66.044 151 65.7254C151.203 65.0333 151.48 64.3648 151.824 63.7312C152.219 63.1083 152.819 62.6423 153.519 62.413C154.157 62.2061 154.808 62.0411 155.467 61.919C156.055 61.806 156.625 61.6118 157.159 61.3418C157.612 61.083 158.003 60.728 158.303 60.3018C158.747 59.6864 159.001 58.954 159.031 58.1958C159.033 57.9175 159.014 57.6395 158.977 57.3638C159.055 57.6339 159.091 57.9146 159.083 58.1958C159.073 58.9704 158.829 59.7237 158.381 60.3564C158.077 60.7967 157.678 61.1635 157.214 61.4302C156.672 61.7102 156.094 61.9124 155.495 62.0308C154.842 62.1547 154.198 62.3206 153.566 62.5274C152.893 62.7478 152.318 63.1955 151.939 63.7936C151.6 64.4186 151.327 65.0774 151.125 65.7592C151.013 66.0836 150.88 66.4006 150.727 66.7082C150.573 67.0037 150.377 67.2752 150.145 67.5142C149.688 67.9306 149.126 68.2139 148.52 68.3332C147.968 68.4736 147.448 68.562 146.993 68.7128C146.091 69.0196 145.519 69.6514 145.366 70.1558C145.303 70.3503 145.286 70.5568 145.316 70.759C145.338 70.8311 145.354 70.9051 145.363 70.98Z" fill="#FAFAFA"/>
<path d="M160.191 85.02C160.202 85.074 160.208 85.1288 160.209 85.1838C160.214 85.3413 160.198 85.4988 160.16 85.6518C159.997 86.2156 159.651 86.7093 159.177 87.0558C158.861 87.3079 158.511 87.5144 158.137 87.6694C157.739 87.8384 157.3 87.9736 156.837 88.1166C156.357 88.257 155.887 88.4307 155.431 88.6366C154.957 88.863 154.532 89.1801 154.18 89.57C153.8 89.9652 153.473 90.3994 153.109 90.7842C152.761 91.1569 152.356 91.4728 151.91 91.7202C151.151 92.1343 150.302 92.3558 149.438 92.365C148.859 92.3713 148.283 92.2753 147.737 92.0816C147.589 92.0306 147.445 91.9689 147.306 91.897C147.255 91.876 147.207 91.8489 147.163 91.8164C147.215 91.8292 147.267 91.8475 147.316 91.871C147.459 91.9321 147.605 91.9859 147.753 92.0322C148.298 92.203 148.867 92.283 149.438 92.2688C150.283 92.2469 151.111 92.0213 151.85 91.611C152.282 91.3663 152.674 91.0568 153.013 90.6932C153.369 90.3136 153.694 89.882 154.081 89.4764C154.454 89.0719 154.903 88.745 155.402 88.5144C155.865 88.3077 156.342 88.1339 156.829 87.9944C157.287 87.854 157.724 87.7344 158.129 87.5628C158.492 87.4143 158.833 87.2175 159.143 86.9778C159.609 86.6488 159.957 86.1783 160.134 85.6362C160.172 85.4331 160.191 85.2268 160.191 85.02Z" fill="#FAFAFA"/>
<path d="M158.914 50.5595L156.746 50.6115C156.663 51.0487 156.497 51.4661 156.257 51.8413C154.437 48.6953 153.041 44.4833 152.693 42.7907C152.745 42.6217 152.804 42.4345 152.88 42.2265C152.934 41.9105 152.924 41.587 152.851 41.2749C152.789 40.8979 152.685 40.3909 152.654 40.1569C152.557 39.4393 152.44 39.3275 152.191 39.4081C151.853 39.5199 152.331 41.4179 152.053 41.4595C151.902 41.4803 151.72 40.8303 151.668 40.2973C151.616 39.7643 151.372 38.1211 151.198 38.0119C150.938 37.8507 150.711 38.1055 150.779 38.6359C150.847 39.1663 150.927 40.7783 150.646 40.8017C150.366 40.8251 150.126 38.1003 150.126 38.1003C150.126 38.1003 150.171 37.5075 149.843 37.5205C149.255 37.5465 149.716 40.4169 149.765 40.6899C149.801 40.8771 149.505 40.9135 149.469 40.7081C149.432 40.5027 149.297 37.9859 148.689 38.0067C148.226 38.0067 149.045 40.3701 148.785 40.9161C148.525 41.4621 148.348 39.0649 147.909 39.0961C147.745 39.1091 147.623 39.1403 147.924 40.4949C148.213 41.5711 148.56 42.6309 148.964 43.6695C149.661 47.4265 152.719 59.4463 157.51 57.2467C160.194 56.0143 161.28 50.5595 161.28 50.5595H158.914Z" fill="#E1B6A6"/>
<path d="M149.672 40.872C149.692 40.8772 149.713 40.8772 149.734 40.872C149.765 40.8624 149.792 40.842 149.81 40.8143C149.827 40.7867 149.835 40.7537 149.83 40.7212C149.83 40.56 149.799 40.326 149.763 40.0218C149.702 39.6552 149.662 39.2854 149.643 38.9142C149.643 38.6958 149.643 38.4618 149.656 38.2148C149.66 38.0892 149.673 37.9641 149.695 37.8404C149.716 37.7234 149.794 37.5804 149.885 37.6038H149.9C149.991 37.6038 150.064 37.6714 150.093 37.7806C150.125 37.8938 150.137 38.0116 150.129 38.129C150.183 38.8571 150.276 39.5819 150.407 40.3C150.428 40.3962 150.449 40.495 150.48 40.5938C150.494 40.6444 150.511 40.6939 150.532 40.742C150.545 40.7688 150.56 40.7948 150.576 40.82C150.588 40.839 150.604 40.855 150.623 40.8667C150.642 40.8785 150.663 40.8856 150.686 40.8876C150.723 40.8834 150.759 40.8681 150.788 40.8436C150.818 40.819 150.839 40.7864 150.849 40.7498C150.872 40.6989 150.888 40.6457 150.899 40.5912C150.919 40.4864 150.933 40.3805 150.94 40.274C150.964 39.8408 150.958 39.4064 150.922 38.974C150.889 38.7581 150.881 38.5392 150.896 38.3214C150.906 38.2273 150.951 38.1406 151.024 38.0796C151.04 38.0697 151.059 38.0634 151.078 38.0612C151.097 38.0589 151.117 38.0608 151.135 38.0666C151.157 38.0719 151.178 38.0807 151.198 38.0926C151.211 38.1025 151.221 38.116 151.226 38.1316C151.308 38.3424 151.368 38.5611 151.406 38.7842C151.453 39.013 151.492 39.2496 151.528 39.4862C151.564 39.7228 151.598 39.962 151.627 40.2038C151.649 40.4533 151.689 40.7009 151.746 40.9448C151.777 41.0695 151.816 41.192 151.863 41.3114C151.89 41.3782 151.927 41.4405 151.973 41.496C151.99 41.519 152.014 41.5366 152.041 41.5468C152.068 41.5569 152.098 41.5591 152.126 41.5532C152.152 41.5445 152.176 41.5292 152.195 41.5087C152.213 41.4882 152.226 41.4632 152.233 41.4362C152.263 41.3033 152.273 41.1665 152.261 41.0306C152.261 40.9006 152.246 40.7706 152.233 40.6458C152.214 40.4274 152.194 40.2116 152.186 39.9984C152.179 39.8936 152.179 39.7886 152.186 39.6838C152.191 39.6374 152.202 39.5919 152.22 39.5486C152.225 39.5343 152.233 39.5211 152.243 39.5096H152.277C152.448 39.4394 152.506 39.6786 152.552 39.871C152.599 40.0634 152.617 40.2818 152.659 40.4872C152.727 40.8954 152.815 41.3036 152.859 41.6936C152.889 41.8803 152.882 42.0712 152.838 42.2552C152.776 42.4424 152.714 42.627 152.654 42.8116V42.8298V42.8454C152.958 44.1227 153.347 45.3786 153.816 46.605C154.227 47.7152 154.64 48.685 155.002 49.465C155.363 50.245 155.691 50.856 155.914 51.2668L156.174 51.7322C156.202 51.7877 156.236 51.84 156.276 51.8882C156.254 51.8304 156.227 51.7748 156.195 51.7218L155.935 51.246C155.722 50.8274 155.415 50.206 155.061 49.426C154.708 48.646 154.307 47.6762 153.907 46.566C153.449 45.3415 153.068 44.0893 152.768 42.8168V42.8532C152.828 42.6712 152.888 42.4866 152.95 42.302C153.004 42.0994 153.015 41.8876 152.981 41.6806C152.935 41.2724 152.849 40.8772 152.781 40.4664C152.742 40.2636 152.716 40.0556 152.675 39.8424C152.672 39.7329 152.653 39.6243 152.62 39.52C152.59 39.4566 152.54 39.4052 152.477 39.3744C152.41 39.3526 152.338 39.3526 152.272 39.3744H152.23C152.208 39.3814 152.188 39.393 152.17 39.4082C152.141 39.4327 152.119 39.464 152.105 39.4992C152.081 39.5555 152.066 39.6151 152.061 39.676C152.053 39.7885 152.053 39.9015 152.061 40.014C152.061 40.2324 152.092 40.4508 152.11 40.6692C152.11 40.7966 152.131 40.9292 152.136 41.0462C152.147 41.1635 152.141 41.2816 152.118 41.3972C152.118 41.4232 152.097 41.418 152.118 41.431L152.103 41.4154C152.069 41.3729 152.043 41.3256 152.025 41.275C151.979 41.1625 151.942 41.047 151.913 40.9292C151.856 40.6924 151.817 40.4517 151.796 40.209C151.768 39.9646 151.734 39.7228 151.694 39.4836C151.658 39.2444 151.616 39.0104 151.57 38.7764C151.53 38.5382 151.464 38.3053 151.372 38.0822C151.354 38.0449 151.326 38.0134 151.291 37.9912C151.261 37.9736 151.229 37.9597 151.195 37.9496C151.158 37.9399 151.119 37.9376 151.082 37.943C151.044 37.9483 151.007 37.9612 150.974 37.9808C150.921 38.0209 150.876 38.0716 150.843 38.1297C150.81 38.1879 150.789 38.2522 150.782 38.3188C150.765 38.4369 150.765 38.5569 150.782 38.675C150.782 38.7868 150.808 38.896 150.816 39.0052C150.852 39.4306 150.86 39.8579 150.839 40.2844C150.833 40.3857 150.82 40.4865 150.8 40.586C150.792 40.6325 150.779 40.6779 150.761 40.7212C150.754 40.7383 150.745 40.7542 150.732 40.768C150.732 40.7914 150.714 40.768 150.717 40.7992C150.717 40.7732 150.717 40.7992 150.717 40.7654C150.705 40.7478 150.695 40.7296 150.686 40.7108C150.667 40.6692 150.652 40.6224 150.636 40.5782C150.608 40.4846 150.587 40.3884 150.566 40.2948C150.43 39.5828 150.332 38.8642 150.272 38.142C150.28 38.0113 150.265 37.8802 150.228 37.7546C150.211 37.6891 150.176 37.6296 150.127 37.583C150.101 37.5584 150.071 37.5393 150.038 37.5268C150.005 37.5142 149.969 37.5086 149.934 37.5102H149.95C149.906 37.5038 149.861 37.5104 149.821 37.5294C149.78 37.5484 149.747 37.5788 149.724 37.6168C149.685 37.6788 149.658 37.7476 149.646 37.8196C149.624 37.9485 149.612 38.0789 149.609 38.2096C149.609 38.4696 149.609 38.6958 149.609 38.9168C149.634 39.2903 149.682 39.662 149.752 40.0296C149.796 40.3312 149.83 40.5652 149.846 40.7238C149.851 40.7516 149.846 40.7802 149.832 40.8049C149.818 40.8295 149.797 40.8486 149.77 40.859C149.692 40.8668 149.669 40.8694 149.672 40.872Z" fill="#D19684"/>
<path d="M132.738 54.1397C132.23 54.1289 131.724 54.1875 131.232 54.3139C129.888 54.6675 127.572 56.0715 127.475 57.8057H129.16C129.16 57.8057 128.216 59.8129 128.492 59.6257C129.212 59.1421 130.642 57.6887 130.642 57.6887L132.738 54.1397Z" fill="#E1B6A6"/>
<path d="M155.704 23.9199C155.665 23.9199 155.514 22.5315 155.363 20.7999C155.212 19.0683 155.119 17.6799 155.155 17.6799C155.191 17.6799 155.345 19.0683 155.496 20.7999C155.646 22.5315 155.74 23.9199 155.704 23.9199Z" fill="#263238"/>
<path d="M163.09 17.7866C163.119 17.8074 161.983 19.4584 160.55 21.4734C159.117 23.4884 157.929 25.1134 157.898 25.0822C157.867 25.051 159.006 23.4104 160.438 21.3954C161.871 19.3804 163.059 17.7658 163.09 17.7866Z" fill="#263238"/>
<path d="M166.158 25.2692C166.158 25.3056 164.837 25.6098 163.194 25.9478C161.551 26.2858 160.209 26.5302 160.202 26.4938C160.194 26.4574 161.52 26.1532 163.166 25.8152C164.811 25.4772 166.14 25.2328 166.158 25.2692Z" fill="#263238"/>
<path d="M77.74 60.9804L68.536 108.248L67.34 114.436L128.7 114.14C131.456 114.127 133.9 111.68 134.781 108.046L145.665 63.4218C146.338 60.6632 144.862 57.7928 142.771 57.7954L80.652 57.8604C79.3 57.8578 78.0884 59.137 77.74 60.9804Z" fill="#0068FF"/>
<g opacity="0.5">
<path d="M77.74 60.9804L68.536 108.248L67.34 114.436L128.7 114.14C131.456 114.127 133.9 111.68 134.781 108.046L145.665 63.4218C146.338 60.6632 144.862 57.7928 142.771 57.7954L80.652 57.8604C79.3 57.8578 78.0884 59.137 77.74 60.9804Z" fill="black"/>
</g>
<path d="M122.821 105.04L116.321 52.6734C116.061 50.5284 114.348 48.9268 112.328 48.9346L98.0797 48.9788C97.5503 48.9848 97.0275 49.0985 96.5434 49.3131C96.0593 49.5276 95.624 49.8385 95.2639 50.2268L88.5039 57.421L48.8799 57.6342C46.4593 57.6472 44.5977 59.9404 44.9175 62.5144L50.9521 110.913C51.2121 113.056 52.9255 114.655 54.9405 114.652L124.01 114.514C131.7 114.673 132.436 112.403 132.436 112.403C123.607 114.356 122.821 105.053 122.821 105.04Z" fill="#0068FF"/>
<g opacity="0.5">
<path d="M93.0384 94.5671L90.7088 97.0683L72.7688 80.9275L75.0984 78.4263L93.0384 94.5671Z" fill="white"/>
<path d="M89.7338 77.8726L92.3078 80.1892L76.076 97.6222L73.4994 95.3056L89.7338 77.8726Z" fill="white"/>
</g>
<path d="M132.683 26.9828C132.599 26.9473 132.527 26.8886 132.475 26.8136C132.423 26.7385 132.393 26.6502 132.389 26.559L132.285 24.1462C132.282 24.0712 132.296 23.9964 132.326 23.9277C132.356 23.859 132.402 23.7983 132.46 23.7503C132.517 23.7024 132.586 23.6686 132.659 23.6516C132.732 23.6345 132.808 23.6347 132.881 23.6522C133.082 23.6956 133.29 23.6975 133.492 23.6577C133.694 23.6179 133.886 23.5373 134.056 23.4208C134.212 23.3218 134.347 23.1918 134.451 23.0389C134.555 22.886 134.627 22.7133 134.662 22.5316C134.685 22.3475 134.672 22.1607 134.622 21.982C134.572 21.8034 134.486 21.6366 134.371 21.4916C134.249 21.3265 134.096 21.1872 133.92 21.0814C133.744 20.9757 133.549 20.9057 133.346 20.8754C132.937 20.8526 132.532 20.9686 132.197 21.2045C131.862 21.4404 131.617 21.7825 131.5 22.1754C131.461 22.2944 131.378 22.3939 131.268 22.453C131.157 22.5122 131.028 22.5265 130.908 22.493C130.787 22.4595 130.684 22.3807 130.62 22.2731C130.556 22.1655 130.536 22.0374 130.564 21.9154C130.741 21.2975 131.125 20.7593 131.652 20.3914C132.179 20.0235 132.817 19.8482 133.458 19.8952C133.792 19.9396 134.113 20.0507 134.403 20.2217C134.693 20.3928 134.945 20.6204 135.145 20.891C135.34 21.1417 135.483 21.429 135.564 21.7358C135.646 22.0427 135.665 22.3627 135.621 22.6772C135.562 22.9911 135.439 23.2897 135.26 23.5544C135.082 23.8191 134.85 24.0444 134.581 24.2164C134.191 24.479 133.735 24.6275 133.266 24.6454L133.346 26.507C133.349 26.5888 133.332 26.67 133.295 26.7431C133.258 26.8163 133.203 26.8789 133.136 26.9254C133.069 26.9718 132.991 27.0004 132.909 27.0086C132.828 27.0168 132.746 27.0044 132.67 26.9724L132.683 26.9828Z" fill="#0068FF"/>
<path d="M133.396 27.9706C133.401 28.0492 133.383 28.1275 133.344 28.1958C133.305 28.2642 133.246 28.3194 133.176 28.3544C133.106 28.3895 133.026 28.4029 132.948 28.3929C132.87 28.3829 132.797 28.35 132.737 28.2983C132.678 28.2466 132.635 28.1784 132.615 28.1025C132.594 28.0265 132.597 27.9461 132.622 27.8715C132.647 27.7969 132.693 27.7314 132.756 27.6834C132.818 27.6353 132.893 27.6068 132.972 27.6014C133.024 27.5975 133.076 27.604 133.126 27.6205C133.176 27.637 133.221 27.6632 133.261 27.6976C133.3 27.7319 133.332 27.7737 133.356 27.8206C133.379 27.8675 133.392 27.9185 133.396 27.9706Z" fill="#0068FF"/>
<path d="M124.329 23.5793C124.341 23.5279 124.348 23.4758 124.353 23.4233C124.353 23.3089 124.381 23.1633 124.402 22.9579C124.428 22.7058 124.47 22.4556 124.53 22.2091C124.563 22.0635 124.582 21.9023 124.634 21.7385C124.686 21.5747 124.738 21.3979 124.795 21.2185C125.096 20.3297 125.534 19.4936 126.095 18.7407C126.829 17.7659 127.76 16.9563 128.827 16.3643C129.435 16.0218 130.082 15.7547 130.754 15.5687C131.479 15.3764 132.227 15.2786 132.977 15.2775C133.372 15.2712 133.768 15.292 134.16 15.3399C134.36 15.3607 134.558 15.4127 134.758 15.4465C134.96 15.4812 135.16 15.5299 135.356 15.5921C136.175 15.8211 136.955 16.1745 137.667 16.6399C139.251 17.6673 140.458 19.1822 141.105 20.9559C141.453 21.906 141.629 22.9106 141.625 23.9225C141.635 24.965 141.451 26.0002 141.081 26.9749L140.964 27.2713L140.949 27.3103L140.964 27.3493C141.617 28.8495 142.264 30.3237 142.875 31.7511L142.984 31.6263L139.084 30.1313L139.038 30.1131L138.999 30.1495C137.967 31.1492 136.704 31.878 135.322 32.2711C134.142 32.5962 132.905 32.6671 131.695 32.4793C130.485 32.2916 129.329 31.8493 128.302 31.1817C127.461 30.6303 126.72 29.9402 126.11 29.1407C125.227 27.9738 124.654 26.6014 124.446 25.1523C124.415 24.8923 124.389 24.6739 124.366 24.4763C124.342 24.2787 124.366 24.1175 124.353 23.9797C124.34 23.8419 124.353 23.7509 124.353 23.6755C124.366 23.6736 124.377 23.6668 124.386 23.6565C124.394 23.6463 124.398 23.6333 124.397 23.6202C124.396 23.6071 124.39 23.5949 124.38 23.586C124.371 23.5771 124.358 23.5721 124.345 23.5721C124.332 23.5721 124.319 23.5771 124.31 23.586C124.3 23.5949 124.294 23.6071 124.293 23.6202C124.292 23.6333 124.296 23.6463 124.304 23.6565C124.312 23.6668 124.324 23.6736 124.337 23.6755C124.337 23.7509 124.337 23.8523 124.337 23.9797C124.337 24.1071 124.337 24.2839 124.337 24.4815C124.337 24.6791 124.381 24.9053 124.407 25.1627C124.493 25.7881 124.642 26.4031 124.852 26.9983C125.15 27.7843 125.55 28.5275 126.043 29.2083C126.655 30.022 127.402 30.7254 128.25 31.2883C129.289 31.9726 130.462 32.428 131.691 32.6243C132.92 32.8206 134.176 32.7534 135.377 32.4271C136.775 32.03 138.054 31.2941 139.1 30.2847L139.014 30.3029L142.914 31.8057L143.109 31.8811L143.023 31.6809C142.405 30.2535 141.765 28.7819 141.115 27.2791V27.3545L141.235 27.0503C141.614 26.0544 141.803 24.996 141.791 23.9303C141.799 22.8969 141.623 21.8703 141.271 20.8987C140.61 19.0897 139.377 17.5459 137.758 16.5021C137.028 16.0259 136.228 15.6662 135.387 15.4361C135.188 15.3732 134.985 15.3254 134.779 15.2931C134.576 15.2567 134.376 15.2047 134.173 15.1865C133.775 15.1372 133.375 15.1146 132.974 15.1189C132.212 15.1222 131.453 15.2253 130.718 15.4257C130.037 15.6191 129.381 15.8932 128.765 16.2421C127.687 16.8486 126.75 17.6772 126.017 18.6731C125.458 19.4384 125.025 20.2881 124.735 21.1899C124.68 21.3771 124.628 21.5565 124.582 21.7099C124.54 21.8667 124.507 22.0255 124.483 22.1857C124.427 22.4339 124.391 22.686 124.374 22.9397C124.358 23.1399 124.348 23.2933 124.34 23.4077C124.329 23.4642 124.325 23.5219 124.329 23.5793Z" fill="#263238"/>
</svg>
